<svg width="722" height="533" viewBox="0 0 722 533" fill="none" xmlns="http://www.w3.org/2000/svg">
<rect y="-0.000488281" width="722" height="533" fill="white"/>
<path d="M210.5 216.644C213.602 218.902 220.42 222.558 226.442 225.776C231.349 228.401 235.587 230.674 237.885 232.205C239.232 233.102 241.213 234.774 243.956 237.082C252.135 243.963 267.351 256.772 278.174 259.009C283.3 260.067 289.244 260.851 294.997 261.606C307.809 263.292 318.871 264.746 324.639 269.185C328.334 272.029 331.633 277.696 335.455 284.253C338.867 290.11 344.579 299.92 347.864 300.682C349.105 300.971 350.551 301.324 352.144 301.719C361.938 304.133 378.338 308.17 388.428 306.066C395.027 304.69 401.359 297.944 406.436 292.524C410.018 288.706 413.106 285.41 416.321 283.801C418.133 282.89 421.651 279.581 424.754 276.659C432.044 269.785 438.94 263.292 445.497 264.386C451.815 265.438 460.466 269.792 471.938 277.682C480.35 283.469 489.706 288.96 503.343 287.075C517.994 285.05 538.829 270.964 541.121 268.317C542.785 266.257 550.661 251.373 558.424 236.073C556.873 235.861 555.392 235.409 553.615 234.52C548.165 231.796 547.488 230.864 548.849 223.49C550.209 216.115 547.488 206.573 545.443 207.258C543.398 207.942 550.209 192.946 553.615 190.899C557.021 188.853 560.426 179.996 557.697 177.272C554.976 174.548 561.103 176.587 563.148 171.139C565.193 165.684 561.103 155.465 558.381 150.694C555.66 145.923 557.021 139.776 553.615 136.375C550.209 132.973 548.849 131.611 545.443 132.296C542.038 132.98 548.849 122.07 550.209 117.299C551.57 112.528 554.292 103.672 550.209 100.94C546.127 98.2163 542.721 94.1231 533.866 92.7611C525.017 91.399 517.522 82.5351 518.883 79.1335C520.243 75.7249 526.371 76.4094 529.099 76.4094C531.821 76.4094 533.182 72.3233 533.182 66.868C533.182 61.4128 536.587 54.6025 531.821 49.8318C527.054 45.0611 526.371 43.3462 528.415 39.7753C530.46 36.2043 533.866 22.3721 529.099 24.1787C524.333 25.9854 516.161 30.7561 513.439 28.7095C510.718 26.6629 518.206 17.8061 514.123 16.444C510.041 15.082 507.312 12.3579 503.23 16.444C499.147 20.5302 490.637 23.3954 487.739 23.3248C484.841 23.2613 476.676 30.0716 476.676 30.0716C476.676 30.0716 467.143 19.1681 462.377 19.8456C457.611 20.5302 454.205 20.4666 451.484 19.8174C448.762 19.1681 446.717 25.4349 443.312 23.3248C439.906 21.2147 441.267 11.3769 440.59 10.5018C439.906 9.6267 432.284 8.32817 432.284 8.32817C432.284 8.32817 424.93 3.57864 420.848 4.22085C416.765 4.86306 409.27 12.3367 409.954 17.1215C410.638 21.8993 412.591 35.9644 409.912 35.7456C407.232 35.5268 396.339 33.1344 391.573 39.7823C386.806 46.4303 381.356 52.5701 382.724 55.2942C384.085 58.0183 385.706 67.5597 382.512 68.9217C379.318 70.2838 371.83 69.6063 371.146 73.0079C370.462 76.4165 375.913 83.2338 377.273 85.9579C378.634 88.682 382.04 103.679 379.318 105.725C376.597 107.772 365.703 112.543 365.703 112.543C365.703 112.543 359.576 108.456 356.17 106.41C352.765 104.363 350.043 91.4132 340.51 87.327C330.978 83.2409 318.723 83.9184 313.273 85.965C307.823 88.0116 294.891 96.0215 294.891 96.0215C294.891 96.0215 276.284 97.5459 275.036 102.317C273.788 107.087 275.826 125.486 271.743 129.579C267.661 133.665 260.85 138.436 262.895 144.575C264.939 150.708 266.23 153.432 262.521 157.525C258.812 161.612 266.914 169.113 262.521 174.562C258.128 180.017 243.829 184.103 241.784 184.788C239.74 185.472 231.568 190.243 229.53 194.329C227.485 198.415 224.764 208.641 219.997 210.688C216.571 212.156 210.683 212.212 206.629 211.626C207.962 213.885 209.343 215.804 210.5 216.644Z" fill="white" stroke="#D4D8DB" stroke-width="2"/>
<path d="M643.19 231.317C637.352 227.718 630.512 221.585 635.293 216.814C640.073 212.043 644.24 202.502 638.071 205.226C631.902 207.95 622.369 225.424 609.438 223.504C596.499 221.585 591.733 219.291 586.29 223.504C580.839 227.718 582.207 235.897 571.991 235.897C571.419 235.897 570.876 235.904 570.355 235.911C565.024 246.504 552.297 271.536 549.146 275.22C545.218 279.807 521.831 295.22 504.782 297.57C485.935 300.174 472.926 291.219 465.939 286.413C453.713 278 447.254 275.474 443.961 274.867C441.571 275.34 435.359 281.197 431.996 284.366C427.836 288.283 424.247 291.67 421.046 293.272C419.523 294.035 416.667 297.083 414.143 299.772C408.044 306.279 400.451 314.381 390.579 316.434C387.914 316.992 384.995 317.225 381.956 317.225C370.809 317.225 357.99 314.07 349.614 312.002C348.07 311.621 346.681 311.282 345.475 311C337.74 309.208 331.93 299.236 326.318 289.595C323.469 284.712 320.247 279.172 318.188 277.591C314.67 274.881 303.487 273.413 293.616 272.115C287.679 271.331 281.538 270.527 276.031 269.384C262.592 266.603 246.665 253.201 237.153 245.191C234.953 243.342 232.873 241.592 232.02 241.02C230.152 239.771 225.928 237.513 221.458 235.114C214.83 231.564 207.984 227.894 204.289 225.205C199.727 221.888 195.955 214.704 191.844 206.348C190.956 204.542 189.849 202.29 189.447 201.726C189.454 201.74 189.405 201.719 189.426 201.69C189.482 201.606 184.243 196.8 181.155 195C172.983 190.229 155.279 181.373 150.512 177.279C145.746 173.193 128.725 162.967 126.68 167.053C124.636 171.14 131.447 182.728 126.68 186.136C121.914 189.545 103.532 197.724 101.488 205.219C99.443 212.714 97.4053 212.714 89.9103 218.169C82.4223 223.624 81.696 238.614 77.9732 241.338C74.2503 244.062 72.8472 245.424 77.9732 247.471C83.0991 249.517 94.6766 259.059 99.443 259.736C104.209 260.421 113.742 259.736 113.742 259.736C113.742 259.736 115.103 265.192 119.869 264.507C124.636 263.822 141.656 255.65 145.062 258.374C148.468 261.098 153.234 269.278 153.911 272.686C154.595 276.095 160.919 286.314 158.776 291.085C156.632 295.855 158.875 307.443 158.776 311.529C158.677 315.616 153.911 322.433 151.866 326.526C149.821 330.612 147.784 339.476 149.821 342.2C151.866 344.924 141.649 361.968 146.416 364.692C151.182 367.416 158.769 366.738 158.769 366.738C158.769 366.738 166.842 371.509 170.248 371.509C173.653 371.509 181.825 361.968 181.825 361.968C181.825 361.968 190.942 354.473 194.897 355.15C198.853 355.835 207.025 344.247 207.702 341.523C208.386 338.799 213.138 334.028 216.889 338.114C220.64 342.2 228.128 359.243 228.128 361.283C228.128 363.33 236.977 374.911 237.661 376.957C238.345 379.004 241.066 389.223 241.066 393.316C241.066 397.402 256.726 405.581 257.41 409.675C258.094 413.761 263.537 427.395 268.988 426.711C274.438 426.026 284.464 426.026 285.917 423.987C287.369 421.94 288.053 413.083 292.819 411.721C297.586 410.359 300.307 408.313 300.307 408.313C300.307 408.313 306.435 415.807 309.156 417.854C311.878 419.901 322.771 423.987 328.906 422.625C335.033 421.263 339.799 415.807 341.844 413.083C343.889 410.359 347.294 404.904 351.377 406.95C355.459 408.997 361.593 407.635 364.992 406.266C368.397 404.904 370.442 398.771 371.803 396.725C373.164 394.678 381.336 393.316 383.38 392.638C385.425 391.954 388.147 383.782 390.868 383.097C393.59 382.412 395.635 378.326 396.996 381.735C398.356 385.144 403.123 396.732 405.844 396.732C408.566 396.732 414.016 394.007 421.504 398.094C428.992 402.18 435.803 394.685 435.803 392.638C435.803 390.592 442.615 380.373 445.336 383.782C448.058 387.19 445.336 396.732 444.652 400.14C443.968 403.549 447.374 414.452 446.697 418.538C446.02 422.625 446.697 430.126 450.103 432.851C453.508 435.575 475.979 438.983 480.746 441.707C485.512 444.432 499.811 441.707 502.533 438.983C505.254 436.259 510.705 426.718 514.11 424.671C517.516 422.625 516.155 415.13 514.11 412.406C512.065 409.682 519.56 402.18 524.327 403.549C529.093 404.911 533.176 395.37 535.22 392.645C537.265 389.921 544.753 390.599 548.836 387.875C552.918 385.151 558.368 376.971 562.451 377.649C566.533 378.333 576.066 376.964 577.434 374.24C578.795 371.516 576.073 365.383 580.839 363.337C585.606 361.29 587.65 353.795 586.967 351.071C586.283 348.347 582.454 345.616 587.093 344.938C591.733 344.254 595.138 341.53 596.499 337.444C597.86 333.357 599.221 329.264 604.671 327.902C610.121 326.54 609.438 316.999 604.671 316.314C599.905 315.63 585.606 312.228 586.29 309.497C586.974 306.773 584.245 295.869 589.011 294.5C593.778 293.138 601.95 289.73 604.671 281.55C607.393 273.371 602.126 265.192 608.507 261.105C614.888 257.019 629.229 256.335 634.313 259.059C639.397 261.783 643.246 257.012 645.065 251.564C646.885 246.116 649.028 234.916 643.19 231.317Z" fill="white" stroke="#D4D8DB" stroke-width="2"/>
<path d="M196.722 286.638C191.667 286.638 184.341 281.084 180.604 276.969C178.263 274.386 175.048 268.818 172.474 264.337C171.029 261.831 169.393 258.987 168.963 258.635C168.208 258.133 164.669 259.1 162.483 262.015C160.093 265.212 153.416 269.841 153.134 270.032L152.33 268.868C152.4 268.818 159.099 264.174 161.355 261.161C163.816 257.879 168.096 256.362 169.76 257.463C170.331 257.844 171.24 259.368 173.694 263.624C176.239 268.042 179.405 273.546 181.647 276.009C185.906 280.695 193.034 285.537 197.138 285.198C201.644 284.824 211.099 280.653 212.185 275.932C213.334 270.949 213.341 264.803 212.199 260.992C211.388 258.275 211.776 255.416 213.193 253.709C214.116 252.601 215.421 252.078 216.866 252.241C217.564 252.318 218.382 252.445 219.327 252.601C222.965 253.186 228.472 254.061 231.744 252.297C235.572 250.229 234.606 243.073 234.599 243.01L235.897 244.033C235.946 244.337 237.116 250.999 232.42 253.539C228.726 255.536 223.17 254.647 219.116 253.998C218.185 253.85 217.388 253.723 216.725 253.645C215.738 253.539 214.92 253.864 214.286 254.619C213.179 255.953 212.883 258.345 213.552 260.589C214.758 264.612 214.765 271.048 213.567 276.249C212.276 281.846 202.13 286.193 197.258 286.602C197.082 286.631 196.898 286.638 196.722 286.638Z" fill="#D4D8DB"/>
<path d="M156.315 318.53C156.315 318.53 159.615 320.661 161.222 320.336C162.837 320.012 165.735 317.372 167.991 318.53C170.247 319.687 172.179 323.886 174.111 324.204C176.043 324.528 185.068 321.296 187 318.233C188.932 315.17 194.086 309.362 198.281 310.012C202.47 310.654 211.495 314.204 213.751 313.561C216.007 312.919 224.708 300.336 227.606 298.078C230.504 295.819 236.391 294.528 235.383 293.561C234.375 292.594 238.246 276.468 241.144 273.885C244.041 271.303 249.52 263.885 248.878 261.309C248.237 258.726 234.149 250.928 234.149 250.928" stroke="#D4D8DB" stroke-width="1.5" stroke-miterlimit="10" stroke-linejoin="round"/>
<path d="M235.383 293.561C235.383 293.561 241.785 301.846 245.656 304.479C249.52 307.111 254.681 317.753 254.357 320.978C254.033 324.204 251.805 332.912 254.371 335.813C256.938 338.713 265.956 342.905 264.665 346.138C263.375 349.363 264.024 357.105 260.802 357.747C257.579 358.389 246.298 354.522 243.076 353.23C239.854 351.939 229.538 346.78 227.606 347.422C225.674 348.064 222.833 348.205 222.833 348.205" stroke="#D4D8DB" stroke-width="1.5" stroke-miterlimit="10" stroke-linejoin="round"/>
<path d="M263.734 350.979C263.734 350.979 277.229 351.297 279.168 352.588C281.1 353.88 280.782 360.33 277.236 362.264C273.689 364.197 268.859 366.131 270.467 369.681C272.082 373.231 279.908 374.197 280.345 376.456C280.782 378.714 281.198 385.807 280.345 389.681C279.492 393.548 279.816 397.747 283.039 397.747C286.261 397.747 294.637 396.456 296.252 397.747C297.867 399.039 302.429 401.805 300.306 408.326" stroke="#D4D8DB" stroke-width="1.5" stroke-miterlimit="10" stroke-linejoin="round"/>
<path d="M264.666 346.138C264.666 346.138 278.013 343.88 282.293 343.238C286.58 342.595 292.058 338.396 294.956 339.046C297.854 339.688 300.308 337.754 300.85 334.854C301.4 331.953 296.437 326.145 300.85 328.079C305.264 330.012 310.426 338.015 312.357 336.914C314.289 335.82 320.734 332.913 322.348 333.562C323.963 334.204 331.691 332.595 332.981 331.628C334.271 330.662 339.426 325.503 340.716 329.695C342.006 333.887 340.716 338.728 342.972 340.019C345.228 341.311 351.031 346.145 351.031 349.37C351.031 352.595 349.417 354.028 354.895 357.832C360.374 361.629 368.75 362.596 371.331 361.953C373.911 361.311 376.168 359.695 377.775 360.662C379.39 361.629 384.861 370.013 386.476 372.596C388.091 375.179 389.085 384.473 389.085 384.473" stroke="#D4D8DB" stroke-width="1.5" stroke-miterlimit="10" stroke-linejoin="round"/>
<path d="M376.815 359.102C376.808 358.989 375.779 347.81 375.151 344.663C374.453 341.17 377.803 334.451 380.221 332.376C380.75 331.925 380.99 331.395 380.961 330.746C380.898 329.391 379.615 327.627 377.697 326.265C374.623 324.084 372.599 316.9 372.521 316.61L374.129 316.681C374.228 316.871 375.849 323.23 378.508 325.121C380.806 326.752 382.28 328.89 382.364 330.69C382.414 331.769 381.991 332.722 381.138 333.456C379.058 335.234 375.948 341.431 376.533 344.395C377.175 347.62 378.176 358.523 378.219 358.982L376.815 359.102Z" fill="#D4D8DB"/>
<path d="M264.277 343.753L263.192 342.849C263.474 342.511 270.123 334.529 275.742 332.877C276.842 332.553 277.977 332.263 279.07 331.981C283.23 330.908 287.165 329.892 287.827 327.5C288.116 326.455 288.377 325.178 288.652 323.83C289.329 320.52 289.964 317.394 291.247 316.187C292.114 315.368 294.413 314.797 297.078 314.133C299.511 313.533 302.839 312.708 303.396 311.875C303.833 311.212 304.615 309.405 305.525 307.309C307.147 303.555 309.17 298.876 310.869 296.956C313.605 293.879 319.993 291.818 323.526 292.877C326.699 293.83 329.251 294.486 329.286 294.493L330.302 296.194C330.844 296.476 326.318 295.192 323.117 294.232C320.127 293.336 314.268 295.248 311.92 297.895C310.369 299.645 308.317 304.394 306.815 307.867C305.842 310.111 305.081 311.889 304.566 312.651C303.769 313.844 301.217 314.55 297.416 315.495C295.259 316.032 292.819 316.639 292.22 317.203C291.268 318.107 290.584 321.431 290.041 324.105C289.759 325.481 289.498 326.773 289.195 327.867C288.314 331.05 283.999 332.165 279.43 333.336C278.344 333.618 277.23 333.901 276.151 334.225C270.933 335.771 264.348 343.675 264.277 343.753Z" fill="#D4D8DB"/>
<path d="M534.515 392.73C534.395 391.749 533.366 383.104 534.036 380.824C534.586 378.947 532.527 373.33 529.678 370.154C527.662 367.917 522.43 366.258 518.221 364.924C516.705 364.444 515.273 363.993 514.159 363.562C511.776 362.645 510.288 364.007 507.665 366.696C506.594 367.797 505.381 369.039 503.893 370.231C502.779 371.121 501.538 372.179 500.22 373.301C495.531 377.289 490.687 381.403 487.789 381.671C485.124 381.918 480.541 381.276 476.86 380.761C475.619 380.584 474.548 380.436 473.73 380.344C470.782 380.02 469.041 375.066 467.504 370.697C467.109 369.582 466.742 368.524 466.39 367.684C465.635 365.87 464.5 364.339 463.407 362.864C462.216 361.262 461.095 359.744 460.566 358.015C460.298 357.14 460.213 356.279 460.136 355.454C459.917 353.202 459.748 351.424 455.898 350.358C453.557 349.709 450.779 349.257 448.325 348.862C443.848 348.142 441.275 347.676 440.386 346.568C438.99 344.818 436.607 336.223 437.7 333.301C438.511 331.134 434.865 323.025 432.792 321.543C430.649 320.012 428.703 314.5 427.279 310.471C427.081 309.92 426.905 309.405 426.736 308.953C425.445 305.403 422.766 292.863 422.653 292.319L423.958 291.338C423.986 291.472 426.806 305.001 428.061 308.466C428.231 308.925 428.414 309.44 428.604 309.998C429.81 313.406 431.819 319.116 433.603 320.393C435.986 322.101 440.132 330.803 439.011 333.795C438.186 336.004 440.245 344.141 441.479 345.686C442.071 346.427 445.505 346.978 448.537 347.465C451.026 347.867 453.846 348.319 456.265 348.989C461.052 350.323 461.306 352.969 461.532 355.312C461.602 356.075 461.68 356.858 461.905 357.599C462.364 359.095 463.414 360.514 464.528 362.017C465.678 363.562 466.862 365.164 467.68 367.14C468.047 368.015 468.42 369.088 468.822 370.224C470.084 373.802 471.805 378.707 473.878 378.933C474.717 379.025 475.796 379.18 477.051 379.349C480.47 379.829 485.145 380.479 487.655 380.253C490.109 380.027 495.207 375.694 499.303 372.207C500.629 371.078 501.884 370.013 503.005 369.116C504.422 367.98 505.607 366.766 506.65 365.701C509.139 363.146 511.29 360.937 514.66 362.236C515.732 362.652 517.142 363.097 518.636 363.569C523.008 364.953 528.444 366.667 530.722 369.201C533.718 372.532 536.116 378.707 535.389 381.212C534.896 382.906 535.601 389.971 535.918 392.553L534.515 392.73Z" fill="#D4D8DB"/>
<path d="M494.791 297.916C494.791 297.916 494.184 305.559 494.791 306.66C495.397 307.761 496.363 318.728 497.653 321.304C498.944 323.887 504.098 329.688 506.354 330.012C508.61 330.337 525.046 329.046 528.268 330.012C531.49 330.979 543.738 336.053 545.67 337.874C547.602 339.695 550.507 349.378 553.404 350.987C556.302 352.596 560.173 354.085 560.491 356.082C560.815 358.079 562.747 361.622 562.105 363.563C561.464 365.496 562.049 369.046 563.685 370.338C565.327 371.629 562.451 377.663 562.451 377.663" stroke="#D4D8DB" stroke-width="1.5" stroke-miterlimit="10" stroke-linejoin="round"/>
<path d="M559.144 257.746C559.144 257.746 561.449 258.084 564.192 260.343C566.935 262.601 564.989 271.952 564.192 274.21C563.395 276.468 562.669 281.303 565.609 283.243C568.549 285.177 578.541 288.402 580.148 289.052C581.763 289.694 587.396 295.629 587.396 295.629" stroke="#D4D8DB" stroke-width="2" stroke-miterlimit="10" stroke-linejoin="round"/>
<path d="M476.909 280.943C476.909 280.943 483.918 270.985 487.725 266.469C491.533 261.952 496.362 248.444 498.301 243.589C500.233 238.734 506.036 230.667 507.644 224.859C509.258 219.051 510.866 212.283 514.73 212.283C518.594 212.283 524.721 213.575 526.328 213.899C527.943 214.224 533.097 213.899 536.319 212.283C539.542 210.667 545.429 207.272 545.429 207.272" stroke="#D4D8DB" stroke-width="2" stroke-miterlimit="10" stroke-linejoin="round"/>
<path d="M429.182 272.538C429.182 272.538 425.297 266.92 423.288 264.761C421.279 262.601 413.868 258.085 415.8 254.859C417.732 251.634 419.664 249.051 420.954 246.793C422.244 244.535 421.102 238.409 423.281 237.118C425.467 235.826 431.911 235.509 432.877 231.317C433.843 227.117 435.775 220.35 432.877 218.091C429.979 215.833 427.074 210.025 427.074 210.025L429.655 207.272C429.655 207.272 437.065 212.932 441.254 212.932C445.442 212.932 453.818 214.548 459.297 215.515C464.775 216.482 473.56 219.707 476.903 222.608C480.245 225.508 483.587 228.734 487.719 228.416C491.85 228.091 502.159 225.833 503.125 224.866C504.091 223.899 507.637 224.866 507.637 224.866" stroke="#D4D8DB" stroke-width="1.5" stroke-miterlimit="10" stroke-linejoin="round"/>
<path d="M330.633 276.363L329.399 274.634C329.455 274.281 330.435 267.81 334.447 264.232C336.259 262.615 338.184 261.536 339.884 260.583C341.745 259.538 343.353 258.635 343.959 257.428C344.939 255.481 345.708 248.494 345.947 245.671L342.697 240.265C342.535 239.997 342.57 239.644 342.788 239.418C343.007 239.185 343.353 239.129 343.628 239.277C344.65 239.821 347.661 241.168 349.318 240.936C350.939 240.703 355.635 238.783 358.441 237.633C359.386 237.245 360.148 236.934 360.571 236.779C360.676 236.737 371.542 232.82 373.862 234.986C375.399 236.426 380.8 238.339 385.086 238.021C389.183 237.725 398.102 240.745 404.004 242.742C404.737 242.989 405.421 243.222 406.035 243.427C411.647 245.297 417.252 252.284 417.492 252.58L416.392 253.462C416.336 253.392 410.808 246.504 405.597 244.768C404.977 244.563 404.293 244.33 403.56 244.083C398.116 242.241 389.007 239.157 385.199 239.432C380.687 239.757 374.884 237.866 372.91 236.017C371.796 234.979 364.618 236.772 361.071 238.099C360.655 238.254 359.908 238.557 358.984 238.938C355.931 240.188 351.32 242.072 349.529 242.333C348.196 242.523 346.434 242.001 345.073 241.472L347.28 245.142C347.357 245.269 347.393 245.417 347.379 245.565C347.343 245.967 346.561 255.41 345.228 258.064C344.431 259.658 342.647 260.654 340.589 261.811C338.953 262.728 337.106 263.766 335.399 265.283C331.747 268.529 330.901 275.932 330.633 276.363Z" fill="#D4D8DB"/>
<path d="M237.667 186.919C237.667 186.919 249.52 194.223 254.032 198.415C258.545 202.607 268.853 206.454 270.468 207.272C272.082 208.091 283.681 219.058 285.613 220.349C287.545 221.641 296.57 225.508 298.826 229.058C301.082 232.608 309.142 237.442 311.391 238.409C313.647 239.376 332.014 239.143 333.305 239.905C334.595 240.667 343.296 239.905 343.296 239.905C343.296 239.905 351.997 236.8 353.611 235.028C355.226 233.25 356.093 229.058 356.142 226.8C356.192 224.541 353.294 217.124 352.645 215.508C352.004 213.892 355.543 212.608 351.679 212.283C347.815 211.958 342.654 210.667 341.688 209.7C340.722 208.733 339.756 201.958 341.047 200.991C342.337 200.024 344.269 193.574 343.627 192.607C342.986 191.64 340.405 186.919 340.405 186.919C340.405 186.919 344.593 183.574 344.269 181.965C343.944 180.349 341.688 178.098 339.756 176.481C337.824 174.865 337.824 174.223 337.824 171.323C337.824 168.422 337.183 165.197 335.244 163.905C333.312 162.614 326.881 160.038 326.881 160.038" stroke="#D4D8DB" stroke-width="1.5" stroke-miterlimit="10" stroke-linejoin="round"/>
<path d="M267.5 205.945L266.181 205.444C266.294 205.148 269.044 198.091 273.909 197.392C275.009 197.237 276.095 197.117 277.138 197.004C279.74 196.722 282.687 196.404 283.018 195.571C283.787 193.645 288.976 190.003 290.154 189.403C291.381 188.775 298.22 188.225 300.399 188.062C301.167 186.545 304.122 180.772 304.982 179.347C306.096 177.491 313.33 171.979 314.994 171.316C315.911 170.949 317.391 167.371 318.188 165.444C318.555 164.555 318.872 163.793 319.133 163.27C319.901 161.732 322.545 160.864 324.668 160.172C325.352 159.946 326.205 159.664 326.388 159.53C326.67 159.241 327.241 159.071 328.616 158.697C330.717 158.126 334.631 157.053 335.202 155.211C335.836 153.15 335.568 147.017 335.357 142.084C335.258 139.904 335.174 137.843 335.174 136.396C335.174 131.611 338.981 125.062 344.657 122.938C350.016 120.927 354.281 117.822 354.521 116.389C354.824 114.568 355.487 106.636 355.431 106.544C355.424 106.537 355.543 106.163 355.536 105.979L356.813 106.833C356.791 107.165 356.234 114.674 355.91 116.622C355.508 119.028 350.121 122.395 345.15 124.265C340.102 126.156 336.584 132.183 336.584 136.403C336.584 137.822 336.675 139.868 336.767 142.035C337 147.335 337.261 153.348 336.548 155.641C335.745 158.224 331.676 159.339 328.983 160.073C328.32 160.257 327.502 160.476 327.326 160.589C327.051 160.878 326.409 161.097 325.105 161.527C323.533 162.042 320.896 162.91 320.395 163.92C320.155 164.399 319.845 165.14 319.492 166.008C318.075 169.438 316.877 172.106 315.516 172.649C313.95 173.277 307.062 178.648 306.195 180.095C305.25 181.669 301.52 189.008 301.478 189.086C301.365 189.304 301.146 189.453 300.899 189.467C296.486 189.777 291.501 190.321 290.803 190.681C289.407 191.4 284.852 194.816 284.33 196.122C283.681 197.738 281.002 198.027 277.293 198.437C276.257 198.549 275.185 198.662 274.113 198.818C270.059 199.368 267.528 205.882 267.5 205.945Z" fill="#D4D8DB"/>
<path d="M353.273 212.629C353.273 212.629 359.415 210.349 364.245 210.992C369.081 211.634 376.301 211.359 377.521 212.629C378.741 213.899 388.732 214.908 390.347 212.629C391.961 210.349 395.825 209.058 397.433 209.383C399.047 209.707 409.031 213.426 409.997 213.984C410.963 214.541 423.281 213.984 423.281 213.984L426.75 211.782" stroke="#D4D8DB" stroke-width="1.5" stroke-miterlimit="10" stroke-linejoin="round"/>
<path d="M429.704 209.46L428.323 209.199C428.492 208.324 429.352 203.892 430.043 202.862C430.17 202.466 429.578 200.561 429.225 199.418C428.753 197.907 428.308 196.475 428.308 195.508C428.308 193.984 426.8 191.005 426.327 190.3C425.968 190.222 425.065 190.102 424.254 189.996C419.742 189.396 415.92 188.804 414.933 187.562C413.495 185.755 409.659 183.094 408.919 183.384C407.664 185.077 397.426 184.527 396.051 183.489C395.684 183.214 395.162 182.734 394.514 182.134C392.984 180.716 390.417 178.352 388.993 178.14C387.315 177.9 377.824 178.041 373.262 178.112C371.88 178.133 370.851 178.147 370.435 178.147C368.313 178.147 367.918 174.379 367.601 171.344C367.537 170.723 367.481 170.187 367.417 169.813C367.171 168.316 369.18 166.679 372.522 164.16C373.805 163.193 375.258 162.099 375.561 161.591C376.527 159.982 378.529 153.313 376.978 151.435C374.926 148.951 372.564 139.96 372.621 134.851C372.67 130.461 372.635 125.549 372.621 124.237C371.366 123.235 366.134 119.014 364.667 117.25C362.968 115.211 361.826 110.158 361.784 109.974L363.483 111.019C363.49 111.061 364.266 114.568 365.753 116.354C367.297 118.21 373.7 123.298 373.763 123.348C373.932 123.482 374.031 123.679 374.031 123.891C374.031 123.947 374.087 129.763 374.031 134.872C373.975 140.01 376.351 148.464 378.064 150.539C380.292 153.235 377.655 160.843 376.774 162.318C376.351 163.031 375.201 163.913 373.368 165.289C371.845 166.432 368.679 168.817 368.806 169.58C368.877 169.996 368.933 170.554 369.004 171.196C369.385 174.873 369.871 176.729 370.435 176.729C370.844 176.729 371.866 176.715 373.241 176.693C378.191 176.616 387.406 176.475 389.197 176.736C391.045 177.004 393.604 179.361 395.466 181.09C396.065 181.64 396.58 182.12 396.897 182.353C397.884 183.094 406.832 183.426 407.847 182.48C408.016 182.254 408.362 181.965 408.975 181.958C408.982 181.958 408.996 181.958 409.003 181.958C411.013 181.958 414.919 185.268 416.04 186.672C416.752 187.569 422.146 188.281 424.445 188.585C426.708 188.881 427.004 188.931 427.258 189.192C427.737 189.672 429.719 193.384 429.719 195.494C429.719 196.242 430.17 197.703 430.572 198.98C431.333 201.422 431.735 202.84 431.213 203.624C430.826 204.231 430.099 207.399 429.704 209.46Z" fill="#D4D8DB"/>
<path d="M430.063 199.446L429.478 198.162C429.556 198.126 437.403 194.548 440.223 192.671C442.198 191.351 444.616 187.618 446.224 185.141C446.894 184.111 447.422 183.292 447.803 182.819C449.375 180.85 457.745 177.985 459.409 177.427C462.448 176.411 469.618 171.323 469.886 168.669C469.957 167.978 469.915 167.307 469.872 166.658C469.788 165.402 469.71 164.216 470.535 163.285C471.275 162.452 472.573 162.021 474.744 161.901C480.343 161.591 491.751 158.415 494.275 157.434C494.592 157.314 494.987 157.166 495.439 157.004C498.203 156.009 503.956 153.941 503.723 151.379C503.441 148.253 499.309 144.541 497.991 143.884C496.919 143.348 491.109 142.346 487.732 142.346C484.813 142.346 478.897 138.838 476.93 136.375C476.324 135.62 476.098 134.964 476.225 134.385C476.415 133.553 475.562 131.675 474.173 130.49C473.454 129.876 472.354 129.241 471.17 129.713C468.109 130.934 461.665 134.576 458.788 136.926C456.814 138.535 454.149 142.198 452.203 144.879C451.378 146.009 450.673 146.99 450.179 147.575C448.276 149.862 444.292 153.644 438.961 153.313C433.779 152.988 426.841 150.793 426.545 150.702C426.411 150.659 426.291 150.575 426.199 150.462C422.343 145.486 416.187 137.78 415.066 136.947C414.742 136.707 414.255 136.277 413.592 135.684C410.913 133.298 405.343 128.33 400.584 127.829C395.874 127.335 392.673 123.814 390.557 121.485C389.817 120.666 389.175 119.96 388.71 119.657C386.715 118.351 378.134 108.21 377.147 107.038L378.359 106.312C381.01 109.452 387.941 117.462 389.486 118.471C390.099 118.873 390.769 119.607 391.608 120.532C393.702 122.833 396.565 125.987 400.739 126.425C405.949 126.975 411.745 132.141 414.537 134.625C415.151 135.176 415.637 135.606 415.912 135.811C417.499 136.982 425.713 147.519 427.193 149.417C428.392 149.784 434.54 151.619 439.06 151.901C443.77 152.198 447.373 148.754 449.107 146.672C449.566 146.121 450.264 145.162 451.075 144.047C453.063 141.308 455.792 137.554 457.907 135.832C460.932 133.369 467.447 129.692 470.655 128.408C472.086 127.836 473.666 128.196 475.097 129.417C476.81 130.885 477.938 133.249 477.607 134.703C477.607 134.703 477.586 134.985 478.185 135.677C480.032 137.801 485.377 140.934 487.732 140.934C490.961 140.934 497.173 141.894 498.619 142.621C500.015 143.32 504.774 147.378 505.126 151.252C505.458 154.901 499.486 157.046 495.911 158.331C495.474 158.486 495.086 158.627 494.783 158.747C492.125 159.784 480.653 162.981 474.815 163.306C473.123 163.398 472.037 163.708 471.586 164.216C471.177 164.682 471.198 165.409 471.275 166.559C471.318 167.23 471.367 167.992 471.289 168.803C470.909 172.586 462.546 177.858 459.853 178.754C455.101 180.342 449.82 182.544 448.903 183.687C448.565 184.111 448.029 184.936 447.408 185.896C445.646 188.62 443.227 192.354 441.013 193.828C438.094 195.783 430.387 199.298 430.063 199.446Z" fill="#D4D8DB"/>
<path d="M494.523 158.098C494.523 158.098 499.585 168.74 500.551 171.648C501.517 174.548 500.227 181.323 500.551 184.224C500.875 187.124 502.18 193.257 504.429 194.548C506.678 195.84 512.763 199.065 511.17 201.323C509.576 203.582 511.17 214.817 511.17 214.817" stroke="#D4D8DB" stroke-width="2" stroke-miterlimit="10" stroke-linejoin="round"/>
<path d="M500.769 145.14L499.669 144.258C500.466 143.263 507.559 134.512 511.367 134.173C514.603 133.884 523.233 134.505 524.848 135.846C525.8 136.629 534.451 137.427 536.531 137.088C537.814 136.876 542.066 134.011 544.661 132.056L546.635 132.197C545.923 132.734 538.809 138.14 536.764 138.478C534.867 138.796 525.532 138.245 523.952 136.933C522.923 136.079 515.245 135.246 511.501 135.578C508.772 135.818 502.828 142.557 500.769 145.14Z" fill="#D4D8DB"/>
<path d="M466.023 131.47C463.273 126.424 457.752 116.495 456.511 115.006C456.088 114.498 455.376 113.771 454.622 112.994C451.688 109.995 449.637 107.758 449.919 106.276C449.771 105.133 442.882 101.082 440.865 100.736C438.919 100.404 432.863 96.2263 431.925 95.57C429.358 94.455 424.818 92.7895 423.4 93.0012C420.813 93.3893 416.194 90.4817 415.123 89.6278C413.818 88.5904 412.881 81.7378 412.535 78.8373C412.507 78.6114 412.591 78.3856 412.761 78.2303C412.824 78.1739 419.184 72.4363 421.377 69.6134C422.773 67.8138 422.653 64.6169 422.554 62.0481C422.505 60.806 422.47 59.7333 422.604 58.957C422.914 57.1856 418.077 50.3613 415.102 48.3782C412.077 46.3528 407.205 35.8304 407.007 35.3999L408.601 35.5552C409.912 38.3851 413.642 45.7105 415.884 47.2067C418.606 49.0275 424.486 56.3952 423.993 59.204C423.88 59.8321 423.922 60.8342 423.964 61.9987C424.07 64.8004 424.204 68.2796 422.491 70.4815C420.46 73.0927 415.243 77.8845 413.98 79.0349C414.495 83.2198 415.398 87.9482 416.004 88.5339C417.273 89.5431 421.391 91.8791 423.196 91.6109C425.516 91.2721 431.84 94.0033 432.552 94.3138C432.595 94.335 432.637 94.3562 432.672 94.3844C435.26 96.1911 439.836 99.141 441.105 99.3597C442.945 99.6703 449.425 103.079 450.941 105.26C451.258 105.718 451.385 106.156 451.308 106.558C451.145 107.433 454.177 110.538 455.637 112.028C456.448 112.853 457.146 113.573 457.604 114.124C459.24 116.092 466.946 130.221 467.271 130.821L466.023 131.47Z" fill="#D4D8DB"/>
<path d="M457.046 114.554C457.046 114.554 461.883 106.488 463.815 104.554C465.747 102.62 466.635 91.978 466.635 91.978C466.635 91.978 470.901 88.1106 472.192 91.978C473.482 95.8454 476.147 99.7198 476.909 98.753C477.67 97.7861 476.909 83.3188 476.909 83.3188C476.909 83.3188 479.08 73.6009 477.247 71.3426C475.414 69.0843 472.84 55.5414 471.867 53.9253C470.901 52.3092 470.253 43.6006 471.543 42.3162C472.833 41.0247 477.43 34.899 476.901 33.9321C476.373 32.9653 476.648 30.0859 476.648 30.0859" stroke="#D4D8DB" stroke-width="1.5" stroke-miterlimit="10" stroke-linejoin="round"/>
</svg>
